<svg width="300" height="278" viewBox="0 0 300 278" fill="none" xmlns="http://www.w3.org/2000/svg">
<g clip-path="url(#clip0_1234_5)">
<path d="M148.474 158.9C148.474 166.914 145.27 174.312 139.929 179.552C134.741 184.792 127.416 188.183 119.481 188.183H28.9929C12.9705 188.183 0 175.082 0 158.9C0 150.885 3.20448 143.487 8.54527 138.247C11.7497 135.011 15.8698 132.391 20.295 131.004C22.7365 112.201 38.6063 97.5591 57.9858 97.5591C72.3296 97.5591 84.8423 105.573 91.2513 117.441C95.2187 114.667 99.9491 112.971 104.985 112.971C115.972 112.971 125.28 120.523 128.026 130.849C139.929 134.548 148.474 145.799 148.474 158.9Z" fill="#E2E6E8"/>
<path opacity="0.2" d="M156.104 235.498C220.49 235.498 272.686 182.78 272.686 117.749C272.686 52.7181 220.49 0 156.104 0C91.7175 0 39.522 52.7181 39.522 117.749C39.522 182.78 91.7175 235.498 156.104 235.498Z" fill="#FEC105"/>
<path d="M156.104 220.086C212.063 220.086 257.426 174.268 257.426 117.749C257.426 61.2299 212.063 15.4121 156.104 15.4121C100.145 15.4121 54.7812 61.2299 54.7812 117.749C54.7812 174.268 100.145 220.086 156.104 220.086Z" fill="#FEC105" stroke="#FE8005" stroke-width="2" stroke-miterlimit="10"/>
<path opacity="0.2" d="M39.522 223.631C39.522 238.58 45.168 251.989 54.4762 261.699C63.6318 271.408 76.4497 277.419 90.4884 277.419H249.339C277.416 277.419 300.153 253.222 300.153 223.476C300.153 208.527 294.507 195.118 285.198 185.408C279.552 179.398 272.381 174.774 264.598 172.154C260.326 137.476 232.401 110.659 198.525 110.659C173.347 110.659 148.322 121.139 136.877 142.871C130.01 137.785 124.975 139.018 115.972 139.018C96.5922 139.018 78.8912 151.347 74.1608 170.458C53.408 177.086 39.522 199.279 39.522 223.631Z" fill="#E2E5E8"/>
<path d="M49.7456 221.319C49.7456 234.419 54.9338 246.133 63.4791 254.609C71.8718 263.086 83.6215 268.48 96.4394 268.48H242.319C268.108 268.48 289.013 247.366 289.013 221.319C289.013 208.219 283.825 196.505 275.28 188.029C270.091 182.789 263.53 178.627 256.358 176.315C252.543 145.953 226.755 122.527 195.778 122.527C172.736 122.527 152.594 135.473 142.218 154.43C135.961 149.961 128.332 147.34 120.091 147.34C102.238 147.34 87.2838 159.516 82.8585 176.161C63.6317 182.018 49.7456 200.05 49.7456 221.319Z" fill="white" stroke="#E2E5E8" stroke-width="2" stroke-miterlimit="10"/>
<path d="M95.3712 264.627C119.642 264.627 139.318 244.754 139.318 220.24C139.318 195.726 119.642 175.853 95.3712 175.853C71.0999 175.853 51.4241 195.726 51.4241 220.24C51.4241 244.754 71.0999 264.627 95.3712 264.627Z" fill="url(#paint0_linear_1234_5)"/>
</g>
<defs>
<linearGradient id="paint0_linear_1234_5" x1="125.363" y1="187.763" x2="64.7737" y2="252.093" gradientUnits="userSpaceOnUse">
<stop offset="0.0052" stop-color="#E6E7E8" stop-opacity="0.1"/>
<stop offset="0.0449" stop-color="#EBEBEC" stop-opacity="0.1359"/>
<stop offset="0.1962" stop-color="#F6F7F7" stop-opacity="0.2728"/>
<stop offset="0.4089" stop-color="#FDFDFD" stop-opacity="0.4652"/>
<stop offset="1" stop-color="white"/>
</linearGradient>
<clipPath id="clip0_1234_5">
<rect width="300" height="277.419" fill="white"/>
</clipPath>
</defs>
</svg>
