<svg width="300" height="278" viewBox="0 0 300 278" fill="none" xmlns="http://www.w3.org/2000/svg">
<g clip-path="url(#clip0_1234_12)">
<path opacity="0.2" d="M11.2903 211.14C11.2903 227.768 17.5795 242.682 27.9481 253.482C38.1468 264.282 52.425 270.968 68.063 270.968H245.01C276.286 270.968 301.613 244.054 301.613 210.968C301.613 194.34 295.324 179.426 284.955 168.626C278.666 161.94 270.677 156.797 262.008 153.883C257.249 115.312 226.143 85.4839 188.407 85.4839C160.361 85.4839 132.485 97.1409 119.736 121.312C112.087 115.655 106.478 117.026 96.4493 117.026C74.8621 117.026 55.1446 130.741 49.8753 151.997C26.7583 159.369 11.2903 184.054 11.2903 211.14Z" fill="#E2E5E8"/>
<path opacity="0.5" d="M9.67749 118.787C9.67749 131.945 14.639 143.747 22.8187 152.293C30.8643 160.839 42.1282 166.129 54.4648 166.129H194.056C218.73 166.129 238.71 144.832 238.71 118.651C238.71 105.493 233.748 93.6916 225.569 85.1456C220.607 79.8552 214.305 75.7857 207.466 73.4797C203.711 42.9582 179.172 19.355 149.403 19.355C127.278 19.355 105.286 28.5792 95.2293 47.706C89.1951 43.2295 84.77 44.3147 76.8585 44.3147C59.8286 44.3147 44.2737 55.1668 40.1168 71.9875C21.88 77.8205 9.67749 97.3542 9.67749 118.787Z" fill="#E2E5E8"/>
<path d="M25.5803 207.412C25.5803 221.647 31.201 234.375 40.4587 243.586C49.551 252.797 62.2803 258.659 76.1667 258.659H234.208C262.146 258.659 284.794 235.715 284.794 207.412C284.794 193.177 279.174 180.449 269.916 171.238C264.295 165.543 257.187 161.022 249.417 158.51C245.284 125.517 217.346 100.061 183.787 100.061C158.824 100.061 137.003 114.129 125.761 134.728C118.983 129.871 110.718 127.024 101.791 127.024C82.4487 127.024 66.2478 140.255 61.4537 158.342C40.624 164.706 25.5803 184.301 25.5803 207.412Z" fill="white" stroke="#E2E5E8" stroke-width="2" stroke-miterlimit="10"/>
<path d="M75.0358 255.249C101.407 255.249 122.786 233.489 122.786 206.646C122.786 179.804 101.407 158.043 75.0358 158.043C48.6643 158.043 27.2859 179.804 27.2859 206.646C27.2859 233.489 48.6643 255.249 75.0358 255.249Z" fill="url(#paint0_linear_1234_12)"/>
</g>
<defs>
<linearGradient id="paint0_linear_1234_12" x1="107.623" y1="171.085" x2="41.2506" y2="241.012" gradientUnits="userSpaceOnUse">
<stop offset="0.0052" stop-color="#E6E7E8" stop-opacity="0.1"/>
<stop offset="0.0449" stop-color="#EBEBEC" stop-opacity="0.1359"/>
<stop offset="0.1962" stop-color="#F6F7F7" stop-opacity="0.2728"/>
<stop offset="0.4089" stop-color="#FDFDFD" stop-opacity="0.4652"/>
<stop offset="1" stop-color="white"/>
</linearGradient>
<clipPath id="clip0_1234_12">
<rect width="300" height="277.419" fill="white"/>
</clipPath>
</defs>
</svg>
