<svg width="300" height="278" viewBox="0 0 300 278" fill="none" xmlns="http://www.w3.org/2000/svg">
<g clip-path="url(#clip0_1236_110)">
<path opacity="0.2" d="M11.2905 211.14C11.2905 227.768 17.5797 242.682 27.9484 253.482C38.1471 264.282 52.4252 270.968 68.0632 270.968H245.01C276.286 270.968 301.613 244.054 301.613 210.968C301.613 194.34 295.324 179.426 284.955 168.626C278.666 161.94 270.677 156.797 262.008 153.883C257.249 115.312 226.143 85.4839 188.408 85.4839C160.361 85.4839 132.485 97.1409 119.737 121.312C112.088 115.655 106.478 117.026 96.4495 117.026C74.8623 117.026 55.1449 130.741 49.8756 151.997C26.7585 159.369 11.2905 184.054 11.2905 211.14Z" fill="#E2E5E8"/>
<path opacity="0.5" d="M9.67725 118.787C9.67725 131.945 14.6387 143.747 22.8184 152.293C30.8641 160.839 42.128 166.129 54.4646 166.129H194.056C218.73 166.129 238.709 144.832 238.709 118.651C238.709 105.493 233.748 93.6916 225.568 85.1456C220.607 79.8552 214.304 75.7857 207.466 73.4797C203.711 42.9582 179.172 19.355 149.403 19.355C127.278 19.355 105.286 28.5792 95.2291 47.706C89.1949 43.2295 84.7698 44.3147 76.8582 44.3147C59.8283 44.3147 44.2735 55.1668 40.1165 71.9875C21.8798 77.8205 9.67725 97.3542 9.67725 118.787Z" fill="#E2E5E8"/>
<path d="M25.5806 207.412C25.5806 221.647 31.2013 234.375 40.4589 243.586C49.5512 252.797 62.2805 258.659 76.167 258.659H234.208C262.146 258.659 284.795 235.715 284.795 207.412C284.795 193.177 279.174 180.449 269.916 171.238C264.295 165.543 257.187 161.022 249.417 158.51C245.284 125.517 217.346 100.061 183.787 100.061C158.824 100.061 137.003 114.129 125.761 134.728C118.984 129.871 110.718 127.024 101.791 127.024C82.4489 127.024 66.2481 140.255 61.4539 158.342C40.6242 164.706 25.5806 184.301 25.5806 207.412Z" fill="white" stroke="#E2E5E8" stroke-width="2" stroke-miterlimit="10"/>
<path d="M75.0356 255.249C101.407 255.249 122.786 233.489 122.786 206.646C122.786 179.804 101.407 158.043 75.0356 158.043C48.664 158.043 27.2856 179.804 27.2856 206.646C27.2856 233.489 48.664 255.249 75.0356 255.249Z" fill="url(#paint0_linear_1236_110)"/>
</g>
<defs>
<linearGradient id="paint0_linear_1236_110" x1="107.623" y1="171.085" x2="41.2503" y2="241.012" gradientUnits="userSpaceOnUse">
<stop offset="0.0052" stop-color="#E6E7E8" stop-opacity="0.1"/>
<stop offset="0.0449" stop-color="#EBEBEC" stop-opacity="0.1359"/>
<stop offset="0.1962" stop-color="#F6F7F7" stop-opacity="0.2728"/>
<stop offset="0.4089" stop-color="#FDFDFD" stop-opacity="0.4652"/>
<stop offset="1" stop-color="white"/>
</linearGradient>
<clipPath id="clip0_1236_110">
<rect width="300" height="277.419" fill="white"/>
</clipPath>
</defs>
</svg>
