<svg width="300" height="278" viewBox="0 0 300 278" fill="none" xmlns="http://www.w3.org/2000/svg">
<path opacity="0.5" d="M20.9678 78.6191C20.9678 88.5962 24.7762 97.5446 31.055 104.025C37.2309 110.505 45.8771 114.516 55.3468 114.516H162.498C181.437 114.516 196.774 98.3675 196.774 78.5163C196.774 68.5392 192.966 59.5907 186.687 53.1108C182.879 49.0994 178.041 46.0137 172.791 44.2652C169.909 21.1225 151.073 3.22559 128.222 3.22559C111.238 3.22559 94.3577 10.2198 86.6379 24.7225C82.006 21.3283 78.6092 22.1511 72.5363 22.1511C59.464 22.1511 47.524 30.3796 44.3331 43.1338C30.3345 47.5566 20.9678 62.3679 20.9678 78.6191Z" fill="#E2E5E8"/>
<path opacity="0.2" d="M27.4194 153.907C27.4194 168.511 33.0448 181.61 42.319 191.095C51.4411 200.58 64.2121 206.452 78.1994 206.452H236.469C264.444 206.452 287.097 182.814 287.097 153.756C287.097 139.152 281.472 126.054 272.197 116.569C266.572 110.697 259.426 106.18 251.672 103.621C247.415 69.7453 219.593 43.5483 185.841 43.5483C160.755 43.5483 135.821 53.7862 124.418 75.0148C117.577 70.0465 112.56 71.2509 103.589 71.2509C84.2809 71.2509 66.6447 83.2955 61.9316 101.965C41.2547 108.439 27.4194 130.119 27.4194 153.907Z" fill="#E2E5E8"/>
<path d="M37.0967 152.573C37.0967 165.747 42.3078 177.526 50.8907 186.051C59.3204 194.575 71.122 200 83.9964 200H230.52C256.422 200 277.419 178.766 277.419 152.573C277.419 139.399 272.208 127.62 263.625 119.096C258.414 113.826 251.824 109.641 244.62 107.317C240.788 76.7839 214.886 53.2256 183.773 53.2256C160.63 53.2256 140.399 66.2446 129.976 85.3082C123.693 80.8135 116.029 78.1787 107.753 78.1787C89.8205 78.1787 74.8004 90.4229 70.3556 107.162C51.044 113.051 37.0967 131.185 37.0967 152.573Z" fill="white" stroke="#E2E5E8" stroke-width="2" stroke-miterlimit="10"/>
<path d="M83.0643 196.774C107.561 196.774 127.419 176.916 127.419 152.419C127.419 127.923 107.561 108.064 83.0643 108.064C58.5678 108.064 38.7095 127.923 38.7095 152.419C38.7095 176.916 58.5678 196.774 83.0643 196.774Z" fill="url(#paint0_linear_1236_125)"/>
<path d="M114.092 203.533L84.7656 254.328C82.7615 257.799 78.3814 258.973 74.9102 256.969C71.439 254.965 70.2654 250.584 72.2694 247.113L101.596 196.319C103.6 192.847 107.98 191.674 111.451 193.678C114.922 195.682 116.096 200.062 114.092 203.533Z" fill="url(#paint1_radial_1236_125)" stroke="#007AFF" stroke-width="2" stroke-miterlimit="10"/>
<path d="M220.976 199.525L191.649 250.32C189.645 253.791 185.265 254.964 181.794 252.96C178.323 250.956 177.149 246.576 179.153 243.105L208.48 192.31C210.484 188.839 214.864 187.665 218.335 189.67C221.806 191.674 222.98 196.054 220.976 199.525Z" fill="url(#paint2_radial_1236_125)" stroke="#007AFF" stroke-width="2" stroke-miterlimit="10"/>
<path d="M155.509 190.173L126.183 240.968C124.179 244.439 119.799 245.612 116.328 243.608C112.857 241.604 111.683 237.224 113.687 233.753L143.013 182.958C145.017 179.487 149.397 178.313 152.869 180.318C156.34 182.322 157.513 186.702 155.509 190.173Z" fill="url(#paint3_radial_1236_125)" stroke="#007AFF" stroke-width="2" stroke-miterlimit="10"/>
<path d="M172.878 227.582L148.896 269.12C146.892 272.592 142.512 273.765 139.041 271.761C135.569 269.757 134.396 265.377 136.4 261.906L160.382 220.368C162.386 216.896 166.766 215.723 170.237 217.727C173.709 219.731 174.882 224.111 172.878 227.582Z" fill="url(#paint4_radial_1236_125)" stroke="#007AFF" stroke-width="2" stroke-miterlimit="10"/>
<defs>
<linearGradient id="paint0_linear_1236_125" x1="113.334" y1="119.966" x2="52.8282" y2="184.851" gradientUnits="userSpaceOnUse">
<stop offset="0.0052" stop-color="#E6E7E8" stop-opacity="0.1"/>
<stop offset="0.0449" stop-color="#EBEBEC" stop-opacity="0.1359"/>
<stop offset="0.1962" stop-color="#F6F7F7" stop-opacity="0.2728"/>
<stop offset="0.4089" stop-color="#FDFDFD" stop-opacity="0.4652"/>
<stop offset="1" stop-color="white"/>
</linearGradient>
<radialGradient id="paint1_radial_1236_125" cx="0" cy="0" r="1" gradientUnits="userSpaceOnUse" gradientTransform="translate(123.94 172.116) rotate(-60) scale(69.621 53.1081)">
<stop stop-color="#B2D4FC"/>
<stop offset="0.8587" stop-color="#B2D4FC"/>
<stop offset="1" stop-color="#B2D4FC"/>
</radialGradient>
<radialGradient id="paint2_radial_1236_125" cx="0" cy="0" r="1" gradientUnits="userSpaceOnUse" gradientTransform="translate(230.824 168.108) rotate(-60) scale(69.621 53.1081)">
<stop stop-color="#B2D4FC"/>
<stop offset="0.8587" stop-color="#B2D4FC"/>
<stop offset="1" stop-color="#B2D4FC"/>
</radialGradient>
<radialGradient id="paint3_radial_1236_125" cx="0" cy="0" r="1" gradientUnits="userSpaceOnUse" gradientTransform="translate(165.358 158.756) rotate(-60) scale(69.621 53.1081)">
<stop stop-color="#B2D4FC"/>
<stop offset="0.8587" stop-color="#B2D4FC"/>
<stop offset="1" stop-color="#B2D4FC"/>
</radialGradient>
<radialGradient id="paint4_radial_1236_125" cx="0" cy="0" r="1" gradientUnits="userSpaceOnUse" gradientTransform="translate(188.071 186.909) rotate(-60) scale(69.621 53.1081)">
<stop stop-color="#B2D4FC"/>
<stop offset="0.8587" stop-color="#B2D4FC"/>
<stop offset="1" stop-color="#B2D4FC"/>
</radialGradient>
</defs>
</svg>
