<svg width="300" height="278" viewBox="0 0 300 278" fill="none" xmlns="http://www.w3.org/2000/svg">
<path opacity="0.5" d="M20.9678 78.6191C20.9678 88.5962 24.7762 97.5446 31.055 104.025C37.2309 110.505 45.8771 114.516 55.3468 114.516H162.498C181.437 114.516 196.774 98.3675 196.774 78.5163C196.774 68.5392 192.966 59.5907 186.687 53.1108C182.879 49.0994 178.041 46.0137 172.791 44.2652C169.909 21.1225 151.073 3.22559 128.222 3.22559C111.238 3.22559 94.3577 10.2198 86.6379 24.7225C82.006 21.3283 78.6092 22.1511 72.5363 22.1511C59.464 22.1511 47.524 30.3796 44.3331 43.1338C30.3345 47.5566 20.9678 62.3679 20.9678 78.6191Z" fill="#E2E5E8"/>
<path opacity="0.2" d="M27.4194 153.907C27.4194 168.511 33.0448 181.61 42.319 191.095C51.4411 200.58 64.2121 206.452 78.1994 206.452H236.469C264.444 206.452 287.097 182.814 287.097 153.756C287.097 139.152 281.472 126.054 272.197 116.569C266.572 110.697 259.426 106.18 251.672 103.621C247.415 69.7453 219.593 43.5483 185.841 43.5483C160.755 43.5483 135.821 53.7862 124.418 75.0148C117.577 70.0465 112.56 71.2509 103.589 71.2509C84.2809 71.2509 66.6447 83.2955 61.9316 101.965C41.2547 108.439 27.4194 130.119 27.4194 153.907Z" fill="#E2E5E8"/>
<path d="M37.0967 152.573C37.0967 165.747 42.3078 177.526 50.8907 186.051C59.3204 194.575 71.122 200 83.9964 200H230.52C256.422 200 277.419 178.766 277.419 152.573C277.419 139.399 272.208 127.62 263.625 119.096C258.414 113.826 251.824 109.641 244.62 107.317C240.788 76.7839 214.886 53.2256 183.773 53.2256C160.63 53.2256 140.399 66.2446 129.976 85.3082C123.693 80.8135 116.029 78.1787 107.753 78.1787C89.8205 78.1787 74.8004 90.4229 70.3556 107.162C51.044 113.051 37.0967 131.185 37.0967 152.573Z" fill="white" stroke="#E2E5E8" stroke-width="2" stroke-miterlimit="10"/>
<path d="M83.0646 196.774C107.561 196.774 127.419 176.916 127.419 152.419C127.419 127.923 107.561 108.064 83.0646 108.064C58.5681 108.064 38.7097 127.923 38.7097 152.419C38.7097 176.916 58.5681 196.774 83.0646 196.774Z" fill="url(#paint0_linear_1234_84)"/>
<path d="M152.507 264.318C160.088 253.786 167.599 243.171 175.089 232.586C177.761 228.809 180.431 225.036 183.1 221.272C184.441 219.381 185.78 217.502 187.115 215.627C190.837 210.402 194.53 205.217 198.155 199.946L198.163 199.935L198.171 199.925C198.779 199.088 199.208 198.078 199.192 197.242L199.192 197.215L199.193 197.188C199.215 196.527 198.953 195.985 198.441 195.553C197.907 195.103 197.076 194.761 196.011 194.648L195.958 194.642L195.906 194.637L195.853 194.631L195.801 194.625L195.749 194.62L195.696 194.614L195.644 194.609L195.591 194.603L195.539 194.597L195.486 194.592L195.434 194.586L195.382 194.581L195.329 194.575L195.277 194.57L195.224 194.564L195.172 194.558L195.119 194.553L195.067 194.547L195.015 194.542L194.962 194.536L194.91 194.53L194.858 194.525L194.805 194.519L194.753 194.514L194.7 194.508L194.648 194.503L194.596 194.497L194.543 194.491L194.491 194.486L194.438 194.48L194.386 194.475L194.334 194.469L194.281 194.464L194.229 194.458L194.177 194.452L194.124 194.447L194.072 194.441L194.02 194.436L193.967 194.43L193.915 194.425L193.863 194.419L193.81 194.413L193.758 194.408L193.706 194.402L193.653 194.397L193.601 194.391L193.549 194.386L193.496 194.38L193.444 194.374L193.392 194.369L193.34 194.363L193.287 194.358L193.235 194.352L193.183 194.347L193.13 194.341L193.078 194.335L193.026 194.33L192.974 194.324L192.921 194.319L192.869 194.313L192.817 194.308L192.764 194.302L192.712 194.296L192.66 194.291L192.608 194.285L192.555 194.28L192.503 194.274L192.451 194.269L192.399 194.263L192.346 194.257L192.294 194.252L192.242 194.246L192.19 194.241L192.137 194.235L192.085 194.23L192.033 194.224L191.981 194.219L191.928 194.213L191.876 194.207L191.824 194.202L191.772 194.196L191.72 194.191L191.667 194.185L191.615 194.18L191.563 194.174L191.511 194.168L191.459 194.163L191.406 194.157L191.354 194.152L191.302 194.146L191.25 194.141L191.198 194.135L191.145 194.13L191.093 194.124L191.041 194.118L190.989 194.113L190.937 194.107L190.885 194.102L190.832 194.096L190.78 194.091L190.728 194.085L190.676 194.08L190.624 194.074L190.572 194.068L190.519 194.063L190.467 194.057L190.415 194.052L190.363 194.046L190.311 194.041L190.259 194.035L190.207 194.03L190.154 194.024L190.102 194.018L190.05 194.013L189.998 194.007L189.946 194.002L189.894 193.996L189.842 193.991L189.79 193.985L189.737 193.98L189.685 193.974L189.633 193.969L189.581 193.963L189.529 193.957L189.477 193.952L189.425 193.946L189.373 193.941L189.321 193.935L189.269 193.93L189.216 193.924L189.164 193.919L189.112 193.913L189.06 193.908L189.008 193.902L188.956 193.896L188.904 193.891L188.852 193.885L188.8 193.88L188.748 193.874L188.696 193.869L188.644 193.863L188.592 193.858L188.539 193.852L188.487 193.847L188.435 193.841L188.383 193.835L188.331 193.83L188.279 193.824L188.227 193.819L188.175 193.813L188.123 193.808L188.071 193.802L188.019 193.797L187.967 193.791L187.915 193.786L187.863 193.78L187.811 193.774L187.759 193.769L187.707 193.763L187.655 193.758L187.603 193.752L187.551 193.747L187.499 193.741L187.447 193.736L187.395 193.73L187.343 193.725L187.291 193.719L187.239 193.714L187.187 193.708L187.135 193.702L187.083 193.697L187.031 193.691L186.979 193.686L186.927 193.68L186.875 193.675L186.823 193.669L186.771 193.664L186.719 193.658L186.667 193.653L186.615 193.647L186.563 193.642L186.511 193.636L186.459 193.631L186.407 193.625L186.355 193.619L186.303 193.614L186.251 193.608L186.199 193.603L186.147 193.597L186.095 193.592L186.043 193.586L185.991 193.581L185.939 193.575L185.887 193.57L185.836 193.564L185.784 193.559L185.732 193.553L185.68 193.548L185.628 193.542L185.576 193.536L185.524 193.531L185.472 193.525L185.42 193.52L185.368 193.514L185.316 193.509L185.264 193.503L185.212 193.498L185.16 193.492L185.108 193.487L185.057 193.481L185.005 193.476L184.953 193.47L184.901 193.465L184.849 193.459L184.797 193.454L184.745 193.448L184.693 193.442L184.641 193.437L184.589 193.431L184.538 193.426L184.486 193.42L184.434 193.415L184.382 193.409L184.33 193.404L184.278 193.398L184.226 193.393L184.174 193.387L184.122 193.382L184.071 193.376L184.019 193.371L183.967 193.365L183.915 193.36L183.863 193.354L183.811 193.349L183.759 193.343L183.707 193.337L183.656 193.332L183.604 193.326L183.552 193.321L183.5 193.315L183.448 193.31L183.396 193.304L183.344 193.299L183.293 193.293L183.241 193.288L183.189 193.282L183.137 193.277L183.085 193.271L183.033 193.266L182.981 193.26L182.93 193.255L182.878 193.249L182.826 193.244L182.774 193.238L182.722 193.233L182.67 193.227L182.619 193.222L182.567 193.216L182.515 193.21L182.463 193.205L182.411 193.199L182.359 193.194L182.308 193.188L182.256 193.183L182.204 193.177L182.152 193.172L182.1 193.166L182.049 193.161L181.997 193.155L181.945 193.15L181.893 193.144L181.841 193.139L181.789 193.133L181.738 193.128L181.686 193.122L181.634 193.117L181.582 193.111L181.53 193.106L181.479 193.1L181.427 193.095L181.375 193.089L181.323 193.084L181.271 193.078L181.22 193.073L181.168 193.067L181.116 193.062L181.064 193.056L181.013 193.05L180.961 193.045L180.909 193.039L180.857 193.034L180.805 193.028L180.754 193.023L180.702 193.017L180.65 193.012L180.598 193.006L180.547 193.001L180.495 192.995L180.443 192.99L180.391 192.984L180.339 192.979L180.288 192.973L180.236 192.968L180.184 192.962L180.132 192.957L180.081 192.951L180.029 192.946L179.977 192.94L179.925 192.935L179.874 192.929L179.822 192.924L179.77 192.918L179.718 192.913L179.667 192.907L179.615 192.902L179.563 192.896L179.511 192.891L179.46 192.885L179.408 192.88L179.356 192.874L179.304 192.869L179.253 192.863L179.201 192.858L179.149 192.852L179.097 192.847L179.046 192.841L178.994 192.836L178.942 192.83L178.89 192.825L178.839 192.819L178.787 192.813L178.735 192.808L178.684 192.802L178.632 192.797L178.58 192.791L178.528 192.786L178.477 192.78L178.425 192.775L178.373 192.769L178.322 192.764L178.27 192.758L178.218 192.753L178.166 192.747L178.115 192.742L178.063 192.736L178.011 192.731L177.959 192.725L177.908 192.72L177.856 192.714L177.804 192.709L177.753 192.703L177.701 192.698L177.649 192.692L177.598 192.687L177.546 192.681L177.494 192.676L177.442 192.67L177.391 192.665L177.339 192.659L177.287 192.654L177.236 192.648L177.184 192.643L177.132 192.637L177.081 192.632L177.029 192.626L176.977 192.621L176.925 192.615L176.874 192.61L176.822 192.604L176.77 192.599L176.719 192.593L176.667 192.588L176.615 192.582L176.564 192.577L176.512 192.571L176.46 192.566L176.409 192.56L176.357 192.555L176.305 192.549L176.254 192.544L176.202 192.538L176.15 192.533L176.099 192.527L176.047 192.522L175.995 192.516L175.943 192.511L175.892 192.505L175.84 192.5L175.788 192.494L175.737 192.489L175.685 192.483L175.633 192.478L175.582 192.472L175.53 192.467L175.478 192.461L175.427 192.456L175.375 192.45L175.323 192.445L175.272 192.439L175.22 192.434L175.168 192.428L175.117 192.423L175.065 192.417L175.013 192.412L174.962 192.406L174.91 192.401L174.858 192.395L174.807 192.39L174.755 192.384L174.703 192.379L174.652 192.373L174.6 192.368L174.549 192.362L174.497 192.357L174.445 192.351L174.394 192.346L174.342 192.34L174.29 192.335L174.239 192.329L174.187 192.324L174.135 192.318L174.084 192.313L174.032 192.307L173.98 192.302L173.929 192.296L173.877 192.291L173.825 192.285L173.774 192.28L173.722 192.274L173.67 192.269L173.619 192.263L173.567 192.258L173.515 192.252L173.464 192.247L173.412 192.241L173.361 192.236L173.309 192.23L173.257 192.225L173.206 192.219L173.154 192.214L173.102 192.208L173.051 192.203L172.999 192.197L172.947 192.192L172.896 192.186L172.844 192.181L172.793 192.175L172.741 192.17L172.689 192.164L172.638 192.159L172.586 192.153L172.534 192.148L172.483 192.142L172.431 192.137L172.379 192.131L172.328 192.126L172.276 192.12L172.225 192.115L172.173 192.109L172.121 192.104L172.07 192.098L172.018 192.093L171.966 192.087L171.915 192.082L171.863 192.076L171.811 192.071L171.76 192.065L171.708 192.06L171.657 192.054L171.605 192.049L171.553 192.043L171.502 192.038L171.45 192.032L171.398 192.027L171.347 192.021L171.295 192.016L171.244 192.01L171.192 192.005L171.14 191.999L171.089 191.994L171.037 191.988L170.985 191.983L170.934 191.977L170.882 191.972L170.83 191.966L170.779 191.961L170.727 191.955L170.676 191.95L170.624 191.944L170.572 191.939L170.521 191.933L170.469 191.928L170.417 191.922L170.366 191.917L170.314 191.911L170.263 191.906L170.211 191.9L170.159 191.895L170.108 191.889L170.056 191.884L170.004 191.878L169.953 191.873L169.901 191.867L169.85 191.862L169.798 191.856L169.746 191.851L169.695 191.845L169.643 191.84L169.591 191.834L169.54 191.829L169.488 191.823L169.437 191.818L169.433 191.817L169.43 191.817L169.427 191.817L169.423 191.816L169.42 191.816L169.417 191.816L169.413 191.815L169.41 191.815L169.407 191.815L169.403 191.814L169.4 191.814L169.397 191.813L169.393 191.813L169.39 191.813L169.387 191.812L169.383 191.812L169.38 191.812L169.377 191.811L169.373 191.811L169.37 191.811L169.367 191.81L169.363 191.81L169.36 191.81L169.357 191.809L169.353 191.809L169.35 191.809L169.347 191.808L169.343 191.808L169.34 191.807L169.337 191.807L169.333 191.807L169.33 191.806L169.327 191.806L169.323 191.806L169.32 191.805L169.317 191.805L169.313 191.805L169.31 191.804L169.307 191.804L169.303 191.804L169.3 191.803L169.297 191.803L169.293 191.802L169.29 191.802L169.287 191.802L169.283 191.801L169.28 191.801L169.277 191.801L169.273 191.8L169.27 191.8L169.267 191.8L169.263 191.799L169.26 191.799L169.257 191.799L169.253 191.798L169.25 191.798L169.247 191.798L169.243 191.797L169.24 191.797L169.237 191.796L169.233 191.796L169.23 191.796L169.227 191.795L169.223 191.795L169.22 191.795L169.217 191.794L169.213 191.794L169.21 191.794L169.207 191.793L169.203 191.793L169.2 191.793L169.197 191.792L169.193 191.792L169.19 191.791L169.187 191.791L169.183 191.791L169.18 191.79L169.177 191.79L169.173 191.79L169.17 191.789L169.167 191.789L169.163 191.789L169.16 191.788L169.157 191.788L169.153 191.788L169.15 191.787L169.147 191.787L169.143 191.787L169.14 191.786L169.137 191.786L169.133 191.785L169.13 191.785L169.127 191.785L169.123 191.784L169.12 191.784L169.117 191.784L169.113 191.783L169.11 191.783L169.107 191.783L169.104 191.782L169.1 191.782L169.097 191.782L169.094 191.781L169.09 191.781L169.087 191.78L169.084 191.78L169.08 191.78L169.077 191.779L169.074 191.779L169.07 191.779L169.067 191.778L169.064 191.778L169.06 191.778L169.057 191.777L169.054 191.777L169.05 191.777L169.047 191.776L169.044 191.776L169.04 191.776L169.037 191.775L169.034 191.775L169.03 191.774L169.027 191.774L169.024 191.774L169.02 191.773L169.017 191.773L169.014 191.773L169.01 191.772L169.007 191.772L169.004 191.772L169 191.771L168.997 191.771L168.994 191.771L168.99 191.77L168.987 191.77L168.984 191.769L168.98 191.769L168.977 191.769L168.974 191.768L168.97 191.768L168.967 191.768L168.964 191.767L168.96 191.767L168.957 191.767L168.954 191.766L168.95 191.766L168.947 191.766L168.944 191.765L168.94 191.765L168.937 191.765L168.934 191.764L168.93 191.764L168.927 191.763L168.924 191.763L168.92 191.763L168.917 191.762L168.914 191.762L168.91 191.762L168.907 191.761L168.904 191.761L168.9 191.761L168.897 191.76L168.894 191.76L168.89 191.76L168.887 191.759L168.884 191.759L168.88 191.759L168.877 191.758L168.874 191.758L168.87 191.757L168.867 191.757L168.864 191.757L168.86 191.756L168.857 191.756L168.854 191.756L168.85 191.755L168.847 191.755L168.844 191.755L168.84 191.754L168.837 191.754L168.834 191.754L168.83 191.753L168.827 191.753L168.824 191.752L168.82 191.752L168.817 191.752L168.814 191.751L168.81 191.751L168.807 191.751L168.804 191.75L168.8 191.75L168.797 191.75L168.794 191.749L168.79 191.749L168.787 191.749L168.784 191.748L168.78 191.748L168.777 191.748L168.774 191.747L168.77 191.747L168.767 191.746L168.764 191.746L168.76 191.746L168.757 191.745L168.754 191.745L168.75 191.745L168.747 191.744L168.744 191.744L168.74 191.744L168.737 191.743L168.734 191.743L168.73 191.743L168.727 191.742L168.724 191.742L168.72 191.741L168.717 191.741L168.714 191.741L168.71 191.74L168.707 191.74L168.704 191.74L168.7 191.739L168.697 191.739L168.694 191.739L168.691 191.738L168.687 191.738L168.684 191.738L168.681 191.737L168.677 191.737L168.674 191.737L168.671 191.736L168.667 191.736L168.664 191.735L168.661 191.735L168.657 191.735L168.654 191.734L168.651 191.734L168.647 191.734L168.644 191.733L168.641 191.733L168.637 191.733L168.634 191.732L168.631 191.732L168.627 191.732L168.624 191.731L168.621 191.731L168.617 191.73L168.614 191.73L168.611 191.73L168.607 191.729L168.604 191.729L168.601 191.729L168.597 191.728L168.594 191.728L168.591 191.728L168.587 191.727L168.584 191.727L168.581 191.727L168.577 191.726L168.574 191.726L168.571 191.726L168.567 191.725L168.564 191.725L168.561 191.724L168.557 191.724L168.554 191.724L168.551 191.723L168.547 191.723L168.544 191.723L168.541 191.722L168.537 191.722L168.534 191.722L168.531 191.721L168.527 191.721L168.524 191.721L168.521 191.72L168.517 191.72L168.514 191.719L168.511 191.719L168.507 191.719L168.504 191.718L168.501 191.718L168.497 191.718L168.494 191.717L168.491 191.717L168.487 191.717L168.484 191.716L168.481 191.716L168.477 191.716L168.474 191.715L168.471 191.715L168.467 191.715L168.464 191.714L168.461 191.714L168.457 191.713L168.454 191.713L168.451 191.713L168.447 191.712L168.444 191.712L168.441 191.712L168.437 191.711L168.434 191.711L168.431 191.711L168.427 191.71L168.424 191.71L168.421 191.71L168.417 191.709L168.414 191.709L168.411 191.708L168.407 191.708L168.404 191.708L168.401 191.707L168.397 191.707L168.394 191.707L168.391 191.706L168.387 191.706L168.384 191.706L168.381 191.705L168.377 191.705L168.374 191.705L168.371 191.704L168.367 191.704L168.364 191.704L168.361 191.703L168.357 191.703L168.354 191.702L168.351 191.702L168.347 191.702L168.344 191.701L168.341 191.701L168.337 191.701L168.334 191.7L168.331 191.7L168.327 191.7L168.324 191.699L168.321 191.699L168.317 191.699L168.314 191.698L168.311 191.698L168.307 191.697L168.304 191.697L168.301 191.697L168.297 191.696L168.294 191.696L168.291 191.696L168.287 191.695L168.284 191.695L168.281 191.695L168.278 191.694L168.274 191.694L168.271 191.694L168.268 191.693L168.264 191.693L168.261 191.693L168.258 191.692L168.254 191.692L168.251 191.691L168.248 191.691L168.244 191.691L168.241 191.69L168.238 191.69L168.234 191.69L168.231 191.689L168.228 191.689L168.224 191.689L168.221 191.688L168.218 191.688L168.214 191.688L168.211 191.687L168.208 191.687L168.204 191.686L168.201 191.686L168.198 191.686L168.194 191.685L168.191 191.685L168.188 191.685L168.184 191.684L168.181 191.684L168.178 191.684L168.174 191.683L168.171 191.683L168.168 191.683L168.164 191.682L168.161 191.682L168.158 191.682L168.154 191.681L168.151 191.681L168.148 191.68L168.144 191.68L168.141 191.68L168.138 191.679L168.134 191.679L168.131 191.679L168.128 191.678L168.124 191.678L168.121 191.678L168.118 191.677L168.114 191.677L168.111 191.677L168.108 191.676L168.104 191.676L168.101 191.676L168.098 191.675L168.094 191.675L168.091 191.674L168.088 191.674L168.084 191.674L168.081 191.673L168.078 191.673L168.074 191.673L168.071 191.672L168.068 191.672L168.064 191.672L168.061 191.671L168.058 191.671L168.054 191.671L168.051 191.67L168.048 191.67L168.044 191.669L168.041 191.669L168.038 191.669L168.034 191.668L168.031 191.668L168.028 191.668L168.024 191.667L168.021 191.667L168.018 191.667L168.014 191.666L168.011 191.666L168.008 191.666L168.004 191.665L168.001 191.665L167.998 191.665L167.994 191.664L167.991 191.664L167.988 191.663L167.984 191.663L167.981 191.663L167.978 191.662L167.974 191.662L167.971 191.662L167.968 191.661L167.964 191.661L167.961 191.661L167.958 191.66L167.954 191.66L167.951 191.66L167.948 191.659L167.944 191.659L167.941 191.658L167.938 191.658L167.934 191.658L167.931 191.657L167.928 191.657L167.924 191.657L167.921 191.656L167.918 191.656L167.914 191.656L167.911 191.655L167.908 191.655L167.904 191.655L167.901 191.654L167.898 191.654L167.894 191.654L167.891 191.653L167.888 191.653L167.884 191.652L167.881 191.652L167.878 191.652L167.874 191.651L167.871 191.651L167.868 191.651L167.865 191.65L167.861 191.65L167.858 191.65L167.855 191.649L167.851 191.649L167.848 191.649L167.845 191.648L167.841 191.648L167.838 191.647L167.835 191.647L167.831 191.647L167.828 191.646L167.825 191.646L167.821 191.646L167.818 191.645L167.815 191.645L167.811 191.645L167.808 191.644L167.805 191.644L167.801 191.644L167.798 191.643L167.795 191.643L167.791 191.643L167.788 191.642L167.785 191.642L167.781 191.641L167.778 191.641L167.775 191.641L167.771 191.64L167.768 191.64L167.765 191.64L167.761 191.639L167.758 191.639L167.755 191.639L167.751 191.638L167.748 191.638L167.745 191.638L167.741 191.637L167.738 191.637L167.735 191.636L167.731 191.636L166.632 191.519L166.858 190.437C167.675 186.54 168.368 182.629 169.044 178.814C169.09 178.554 169.137 178.294 169.183 178.034C169.313 177.294 169.444 176.553 169.575 175.812C171.618 164.234 173.682 152.541 175.859 140.984C176.051 139.798 176.038 138.857 175.775 138.109C175.526 137.4 175.017 136.762 173.988 136.234L174.445 135.344L172.881 135.178C171.258 135.575 170.158 136.455 169.298 137.789M152.507 264.318L153.318 264.904C152.644 265.829 151.672 266.866 150.49 267.167C147.655 268.148 145.052 265.591 145.667 262.521C146.401 258.325 147.171 254.132 147.941 249.939C148.711 245.746 149.481 241.553 150.215 237.356C150.921 233.321 151.664 229.257 152.409 225.176C153.154 221.095 153.903 216.998 154.621 212.897L154.624 212.897L154.627 212.898L154.631 212.898L154.634 212.898L154.637 212.899L154.641 212.899L154.644 212.899L154.647 212.9L154.651 212.9L154.654 212.9L154.657 212.901L154.661 212.901L154.664 212.901L154.667 212.902L154.671 212.902L154.674 212.903L154.677 212.903L154.681 212.903L154.684 212.904L154.687 212.904L154.793 211.91L153.808 211.738C153.804 211.76 153.801 211.782 153.797 211.803L153.23 211.743L126.656 208.913C125.235 208.762 123.986 208.344 123.111 207.111C122.124 205.581 122.147 204.016 123.494 202.164M152.507 264.318C151.856 265.213 151.062 265.989 150.242 266.198L150.202 266.209L150.163 266.222C148.189 266.905 146.157 265.17 146.647 262.718L146.65 262.706L146.652 262.694C147.385 258.502 148.154 254.313 148.924 250.119L148.925 250.117C149.694 245.926 150.465 241.73 151.2 237.529C151.898 233.538 152.642 229.464 153.391 225.368C154.2 220.937 155.013 216.482 155.779 212.081L155.962 211.028L154.899 210.915L154.896 210.915L154.893 210.915L154.889 210.914L154.886 210.914L154.883 210.913L154.879 210.913L154.876 210.913L154.873 210.912L154.869 210.912L154.866 210.912L154.863 210.911L154.859 210.911L154.856 210.911L154.853 210.91L154.849 210.91L154.846 210.91L154.843 210.909L154.839 210.909L154.836 210.908L154.833 210.908L154.829 210.908L154.826 210.907L154.823 210.907L154.819 210.907L154.816 210.906L154.813 210.906L154.809 210.906L154.806 210.905L154.803 210.905L154.799 210.905L154.796 210.904L154.793 210.904L154.789 210.904L154.786 210.903L154.783 210.903L154.779 210.902L154.776 210.902L154.773 210.902L154.769 210.901L154.766 210.901L154.763 210.901L154.759 210.9L154.756 210.9L154.753 210.9L154.749 210.899L154.746 210.899L154.743 210.899L154.739 210.898L154.736 210.898L154.733 210.897L154.729 210.897L154.726 210.897L154.723 210.896L154.72 210.896L154.716 210.896L154.713 210.895L154.71 210.895L154.706 210.895L154.703 210.894L154.7 210.894L154.696 210.894L154.693 210.893L154.69 210.893L154.686 210.893L154.683 210.892L154.68 210.892L154.676 210.891L154.673 210.891L154.67 210.891L154.666 210.89L154.663 210.89L154.66 210.89L154.656 210.889L154.653 210.889L154.65 210.889L154.647 210.888L154.643 210.888L154.64 210.888L154.637 210.887L154.633 210.887L154.63 210.887L154.627 210.886L154.623 210.886L154.62 210.885L154.617 210.885L154.613 210.885L154.61 210.884L154.607 210.884L154.604 210.884L154.6 210.883L154.597 210.883L154.594 210.883L154.59 210.882L154.587 210.882L154.584 210.882L154.58 210.881L154.577 210.881L154.574 210.881L154.57 210.88L154.567 210.88L154.564 210.88L154.561 210.879L154.557 210.879L154.554 210.878L154.551 210.878L154.547 210.878L154.544 210.877L154.541 210.877L154.538 210.877L154.534 210.876L154.531 210.876L154.528 210.876L154.524 210.875L154.521 210.875L154.518 210.875L154.514 210.874L154.511 210.874L154.508 210.874L154.505 210.873L154.501 210.873L154.498 210.872L154.495 210.872L154.491 210.872L154.488 210.871L154.485 210.871L154.482 210.871L154.478 210.87L154.475 210.87L154.472 210.87L154.469 210.869L154.465 210.869L154.462 210.869L154.459 210.868L154.455 210.868L154.452 210.868L154.449 210.867L154.446 210.867L154.442 210.867L154.439 210.866L154.436 210.866L154.433 210.866L154.429 210.865L154.426 210.865L154.423 210.864L154.419 210.864L154.416 210.864L154.413 210.863L154.41 210.863L154.406 210.863L154.403 210.862L154.4 210.862L154.397 210.862L154.393 210.861L154.39 210.861L154.387 210.861L154.384 210.86L154.38 210.86L154.377 210.86L154.374 210.859L154.371 210.859L154.367 210.859L154.364 210.858L154.361 210.858L154.358 210.858L154.354 210.857L154.351 210.857L154.348 210.857L154.345 210.856L154.341 210.856L154.338 210.855L154.335 210.855L154.332 210.855L154.328 210.854L154.325 210.854L154.322 210.854L154.319 210.853L154.316 210.853L154.312 210.853L154.309 210.852L154.306 210.852L154.303 210.852L154.299 210.851L154.296 210.851L154.293 210.851L154.29 210.85L154.287 210.85L154.283 210.85L154.28 210.849L154.277 210.849L154.274 210.849L154.27 210.848L154.267 210.848L154.264 210.848L154.261 210.847L154.258 210.847L154.254 210.847L154.251 210.846L154.248 210.846L154.245 210.846L154.242 210.845L154.238 210.845L154.235 210.844L154.232 210.844L154.229 210.844L154.226 210.843L154.222 210.843L154.219 210.843L154.216 210.842L154.213 210.842L154.21 210.842L154.206 210.841L154.203 210.841L154.2 210.841L154.197 210.84L154.194 210.84L154.19 210.84L154.187 210.839L154.184 210.839L154.181 210.839L154.178 210.838L154.175 210.838L154.171 210.838L154.168 210.837L154.165 210.837L154.162 210.837L154.159 210.836L154.156 210.836L154.152 210.836L154.149 210.835L154.146 210.835L154.143 210.835L154.14 210.834L154.137 210.834L154.133 210.834L154.13 210.833L154.127 210.833L154.124 210.833L154.121 210.832L154.118 210.832L154.114 210.832L154.111 210.831L154.108 210.831L154.105 210.831L154.102 210.83L154.099 210.83L154.096 210.83L154.092 210.829L154.089 210.829L154.086 210.829L154.083 210.828L154.08 210.828L154.077 210.828L154.074 210.827L154.071 210.827L154.067 210.827L154.064 210.826L154.061 210.826L154.058 210.826L154.055 210.825L154.052 210.825L154.049 210.825L154.046 210.824L154.042 210.824L154.039 210.824L154.036 210.823L154.033 210.823L154.03 210.823L154.027 210.822L154.024 210.822L154.021 210.822L154.018 210.821L154.015 210.821L154.011 210.821L154.008 210.82L154.005 210.82L154.002 210.82L153.999 210.819L153.996 210.819L153.993 210.819L153.99 210.818L153.987 210.818L153.984 210.818L153.981 210.817L153.978 210.817L153.974 210.817L153.971 210.816L153.968 210.816L153.965 210.816L153.962 210.815L153.959 210.815L153.956 210.815L153.953 210.814L153.95 210.814L153.947 210.814L153.944 210.813L153.941 210.813L153.938 210.813L153.935 210.813L153.932 210.812L153.929 210.812L153.926 210.812L153.923 210.811L153.919 210.811L153.916 210.811L153.913 210.81L153.91 210.81L153.907 210.81L153.904 210.809L153.901 210.809L153.898 210.809L153.895 210.808L153.892 210.808L153.889 210.808L153.886 210.807L153.883 210.807L153.88 210.807L153.877 210.806L153.874 210.806L153.871 210.806L153.868 210.805L153.865 210.805L153.862 210.805L153.859 210.804L153.856 210.804L153.853 210.804L153.85 210.803L153.847 210.803L153.844 210.803L153.841 210.803L153.838 210.802L153.835 210.802L153.832 210.802L153.829 210.801L153.826 210.801L153.823 210.801L153.82 210.8L153.817 210.8L153.814 210.8L153.811 210.799L153.808 210.799L153.805 210.799L153.802 210.798L153.8 210.798L153.797 210.798L153.794 210.797L153.791 210.797L153.788 210.797L153.785 210.797L153.782 210.796L153.779 210.796L153.776 210.796L153.773 210.795L153.77 210.795L153.767 210.795L153.764 210.794L153.761 210.794L153.758 210.794L153.755 210.793L153.752 210.793L153.75 210.793L153.747 210.792L153.744 210.792L153.741 210.792L153.738 210.792L153.735 210.791L153.732 210.791L153.729 210.791L153.726 210.79L153.723 210.79L153.72 210.79L153.718 210.789L153.715 210.789L153.712 210.789L153.709 210.788L153.706 210.788L153.703 210.788L153.7 210.788L153.697 210.787L153.695 210.787L153.692 210.787L153.689 210.786L153.686 210.786L153.683 210.786L153.68 210.785L153.677 210.785L153.674 210.785L153.672 210.784L153.669 210.784L153.666 210.784L153.663 210.784L153.66 210.783L153.657 210.783L153.655 210.783L153.652 210.782L153.649 210.782L153.646 210.782L153.643 210.781L153.64 210.781L153.638 210.781L153.635 210.781L153.632 210.78L153.629 210.78L153.626 210.78L153.623 210.779L153.621 210.779L153.618 210.779L153.615 210.778L153.612 210.778L153.609 210.778L153.607 210.778L153.604 210.777L153.601 210.777L153.598 210.777L153.595 210.776L153.593 210.776L153.59 210.776L153.587 210.775L153.584 210.775L153.582 210.775L153.579 210.775L153.576 210.774L153.573 210.774L153.57 210.774L153.568 210.773L153.565 210.773L153.562 210.773L153.559 210.773L153.557 210.772L153.554 210.772L153.551 210.772L153.548 210.771L153.546 210.771L153.543 210.771L153.54 210.77L153.538 210.77L153.535 210.77L153.532 210.77L153.529 210.769L153.527 210.769L153.524 210.769L153.521 210.768L153.518 210.768L153.516 210.768L153.513 210.768L153.51 210.767L153.508 210.767L153.505 210.767L153.502 210.766L153.5 210.766L153.497 210.766L153.494 210.766L153.492 210.765L153.489 210.765L153.486 210.765L153.483 210.764L153.481 210.764L153.478 210.764L153.475 210.764L153.473 210.763L153.47 210.763L153.468 210.763L153.465 210.762L153.462 210.762L153.46 210.762L153.457 210.762L153.454 210.761L153.452 210.761L153.449 210.761L153.446 210.76L153.444 210.76L153.441 210.76L153.438 210.76L153.436 210.759L153.433 210.759L153.431 210.759L153.428 210.759L153.425 210.758L153.423 210.758L153.42 210.758L153.418 210.757L153.415 210.757L153.412 210.757L153.41 210.757L153.407 210.756L153.405 210.756L153.402 210.756L153.399 210.756L153.397 210.755L153.394 210.755L153.392 210.755L153.389 210.754L153.387 210.754L153.384 210.754L153.381 210.754L153.379 210.753L153.376 210.753L153.374 210.753L153.371 210.753L153.369 210.752L153.366 210.752L153.364 210.752L153.361 210.751L153.359 210.751L153.356 210.751L153.354 210.751L153.351 210.75L153.349 210.75L153.346 210.75L153.344 210.75L153.341 210.749L153.339 210.749L153.336 210.749L153.284 210.743L153.233 210.738L153.181 210.732L153.13 210.727L153.078 210.721L153.026 210.716L152.975 210.71L152.923 210.705L152.871 210.699L152.82 210.694L152.768 210.688L152.717 210.683L152.665 210.677L152.613 210.672L152.562 210.666L152.51 210.661L152.458 210.655L152.407 210.65L152.355 210.644L152.304 210.639L152.252 210.633L152.2 210.628L152.149 210.622L152.097 210.617L152.045 210.611L151.994 210.606L151.942 210.6L151.89 210.595L151.839 210.589L151.787 210.584L151.736 210.578L151.684 210.573L151.632 210.567L151.581 210.562L151.529 210.556L151.477 210.551L151.426 210.545L151.374 210.54L151.323 210.534L151.271 210.529L151.219 210.523L151.168 210.518L151.116 210.512L151.064 210.507L151.013 210.501L150.961 210.496L150.91 210.49L150.858 210.485L150.806 210.479L150.755 210.474L150.703 210.468L150.651 210.463L150.6 210.457L150.548 210.452L150.496 210.446L150.445 210.441L150.393 210.435L150.342 210.43L150.29 210.424L150.238 210.419L150.187 210.413L150.135 210.408L150.083 210.402L150.032 210.397L149.98 210.391L149.928 210.386L149.877 210.38L149.825 210.375L149.774 210.369L149.722 210.364L149.67 210.358L149.619 210.353L149.567 210.347L149.515 210.342L149.464 210.336L149.412 210.331L149.36 210.325L149.309 210.32L149.257 210.314L149.205 210.309L149.154 210.303L149.102 210.298L149.051 210.292L148.999 210.287L148.947 210.281L148.896 210.276L148.844 210.27L148.792 210.265L148.741 210.259L148.689 210.254L148.637 210.248L148.586 210.243L148.534 210.237L148.482 210.232L148.431 210.226L148.379 210.221L148.327 210.215L148.276 210.21L148.224 210.204L148.172 210.199L148.121 210.193L148.069 210.188L148.017 210.182L147.966 210.177L147.914 210.171L147.862 210.166L147.811 210.16L147.759 210.155L147.707 210.149L147.656 210.144L147.604 210.138L147.553 210.133L147.501 210.127L147.449 210.122L147.398 210.116L147.346 210.111L147.294 210.105L147.242 210.1L147.191 210.094L147.139 210.089L147.087 210.083L147.036 210.078L146.984 210.072L146.932 210.067L146.881 210.061L146.829 210.056L146.777 210.05L146.726 210.045L146.674 210.039L146.622 210.034L146.571 210.028L146.519 210.023L146.467 210.017L146.416 210.012L146.364 210.006L146.312 210.001L146.261 209.995L146.209 209.99L146.157 209.984L146.106 209.979L146.054 209.973L146.002 209.968L145.951 209.962L145.899 209.957L145.847 209.951L145.795 209.946L145.744 209.94L145.692 209.935L145.64 209.929L145.589 209.924L145.537 209.918L145.485 209.913L145.434 209.907L145.382 209.902L145.33 209.896L145.278 209.891L145.227 209.885L145.175 209.88L145.123 209.874L145.072 209.869L145.02 209.863L144.968 209.858L144.917 209.852L144.865 209.847L144.813 209.841L144.761 209.836L144.71 209.83L144.658 209.825L144.606 209.819L144.555 209.814L144.503 209.808L144.451 209.803L144.399 209.797L144.348 209.792L144.296 209.786L144.244 209.781L144.192 209.775L144.141 209.77L144.089 209.764L144.037 209.758L143.986 209.753L143.934 209.747L143.882 209.742L143.83 209.736L143.779 209.731L143.727 209.725L143.675 209.72L143.623 209.714L143.572 209.709L143.52 209.703L143.468 209.698L143.416 209.692L143.365 209.687L143.313 209.681L143.261 209.676L143.209 209.67L143.158 209.665L143.106 209.659L143.054 209.654L143.002 209.648L142.951 209.643L142.899 209.637L142.847 209.632L142.795 209.626L142.744 209.621L142.692 209.615L142.64 209.61L142.588 209.604L142.537 209.599L142.485 209.593L142.433 209.588L142.381 209.582L142.33 209.577L142.278 209.571L142.226 209.566L142.174 209.56L142.123 209.555L142.071 209.549L142.019 209.544L141.967 209.538L141.915 209.533L141.864 209.527L141.812 209.522L141.76 209.516L141.708 209.51L141.656 209.505L141.605 209.499L141.553 209.494L141.501 209.488L141.449 209.483L141.398 209.477L141.346 209.472L141.294 209.466L141.242 209.461L141.19 209.455L141.139 209.45L141.087 209.444L141.035 209.439L140.983 209.433L140.931 209.428L140.88 209.422L140.828 209.417L140.776 209.411L140.724 209.406L140.672 209.4L140.62 209.395L140.569 209.389L140.517 209.384L140.465 209.378L140.413 209.373L140.361 209.367L140.31 209.362L140.258 209.356L140.206 209.35L140.154 209.345L140.102 209.339L140.05 209.334L139.999 209.328L139.947 209.323L139.895 209.317L139.843 209.312L139.791 209.306L139.739 209.301L139.687 209.295L139.636 209.29L139.584 209.284L139.532 209.279L139.48 209.273L139.428 209.268L139.376 209.262L139.325 209.257L139.273 209.251L139.221 209.246L139.169 209.24L139.117 209.235L139.065 209.229L139.013 209.223L138.961 209.218L138.91 209.212L138.858 209.207L138.806 209.201L138.754 209.196L138.702 209.19L138.65 209.185L138.598 209.179L138.546 209.174L138.495 209.168L138.443 209.163L138.391 209.157L138.339 209.152L138.287 209.146L138.235 209.141L138.183 209.135L138.131 209.13L138.079 209.124L138.027 209.118L137.976 209.113L137.924 209.107L137.872 209.102L137.82 209.096L137.768 209.091L137.716 209.085L137.664 209.08L137.612 209.074L137.56 209.069L137.508 209.063L137.456 209.058L137.405 209.052L137.353 209.047L137.301 209.041L137.249 209.036L137.197 209.03L137.145 209.025L137.093 209.019L137.041 209.013L136.989 209.008L136.937 209.002L136.885 208.997L136.833 208.991L136.781 208.986L136.729 208.98L136.677 208.975L136.625 208.969L136.573 208.964L136.521 208.958L136.47 208.953L136.418 208.947L136.366 208.942L136.314 208.936L136.262 208.93L136.21 208.925L136.158 208.919L136.106 208.914L136.054 208.908L136.002 208.903L135.95 208.897L135.898 208.892L135.846 208.886L135.794 208.881L135.742 208.875L135.69 208.87L135.638 208.864L135.586 208.858L135.534 208.853L135.482 208.847L135.43 208.842L135.378 208.836L135.326 208.831L135.274 208.825L135.222 208.82L135.17 208.814L135.118 208.809L135.066 208.803L135.014 208.798L134.962 208.792L134.91 208.786L134.858 208.781L134.806 208.775L134.754 208.77L134.702 208.764L134.649 208.759L134.597 208.753L134.545 208.748L134.493 208.742L134.441 208.737L134.389 208.731L134.337 208.726L134.285 208.72L134.233 208.714L134.181 208.709L134.129 208.703L134.077 208.698L134.025 208.692L133.973 208.687L133.921 208.681L133.869 208.676L133.817 208.67L133.764 208.665L133.712 208.659L133.66 208.653L133.608 208.648L133.556 208.642L133.504 208.637L133.452 208.631L133.4 208.626L133.348 208.62L133.296 208.615L133.244 208.609L133.191 208.603L133.139 208.598L133.087 208.592L133.035 208.587L132.983 208.581L132.931 208.576L132.879 208.57L132.827 208.565L132.775 208.559L132.722 208.554L132.67 208.548L132.618 208.542L132.566 208.537L132.514 208.531L132.462 208.526L132.41 208.52L132.357 208.515L132.305 208.509L132.253 208.504L132.201 208.498L132.149 208.492L132.097 208.487L132.045 208.481L131.992 208.476L131.94 208.47L131.888 208.465L131.836 208.459L131.784 208.454L131.732 208.448L131.679 208.442L131.627 208.437L131.575 208.431L131.523 208.426L131.471 208.42L131.418 208.415L131.366 208.409L131.314 208.404L131.262 208.398L131.21 208.392L131.157 208.387L131.105 208.381L131.053 208.376L131.001 208.37L130.949 208.365L130.896 208.359L130.844 208.354L130.792 208.348L130.74 208.342L130.687 208.337L130.635 208.331L130.583 208.326L130.531 208.32L130.478 208.315L130.426 208.309L130.374 208.303L130.322 208.298L130.269 208.292L130.217 208.287L130.165 208.281L130.113 208.276L130.06 208.27L130.008 208.264L129.956 208.259L129.904 208.253L129.851 208.248L129.799 208.242L129.747 208.237L129.695 208.231L129.642 208.226L129.59 208.22L129.538 208.214L129.485 208.209L129.433 208.203L129.381 208.198L129.328 208.192L129.276 208.187L129.224 208.181L129.172 208.175L129.119 208.17L129.067 208.164L129.015 208.159L128.962 208.153L128.91 208.148L128.858 208.142L128.805 208.136L128.753 208.131L128.701 208.125L128.648 208.12L128.596 208.114L128.544 208.109L128.491 208.103L128.439 208.097L128.386 208.092L128.334 208.086L128.282 208.081L128.229 208.075L128.177 208.069L128.125 208.064L128.072 208.058L128.02 208.053L127.967 208.047L127.915 208.042L127.863 208.036L127.81 208.03L127.758 208.025L127.706 208.019L127.653 208.014L127.601 208.008L127.548 208.003L127.496 207.997L127.443 207.991L127.391 207.986L127.339 207.98L127.286 207.975L127.234 207.969L127.181 207.963L127.129 207.958L127.076 207.952L127.024 207.947L126.972 207.941L126.919 207.936L126.867 207.93L126.814 207.924L126.762 207.919L152.507 264.318ZM169.298 137.789L169.294 137.794C158.145 153.42 146.997 169.045 135.991 184.685M169.298 137.789L170.138 138.331L170.125 138.351L170.112 138.369L169.298 137.789ZM135.991 184.685C131.778 190.507 127.565 196.328 123.494 202.164M135.991 184.685L136.809 185.261L136.801 185.272L135.991 184.685ZM123.494 202.164L124.314 202.736L124.309 202.744L124.303 202.752L123.494 202.164Z" fill="#FEC105" stroke="#FE8005" stroke-width="2"/>
<defs>
<linearGradient id="paint0_linear_1234_84" x1="113.335" y1="119.966" x2="52.8284" y2="184.851" gradientUnits="userSpaceOnUse">
<stop offset="0.0052" stop-color="#E6E7E8" stop-opacity="0.1"/>
<stop offset="0.0449" stop-color="#EBEBEC" stop-opacity="0.1359"/>
<stop offset="0.1962" stop-color="#F6F7F7" stop-opacity="0.2728"/>
<stop offset="0.4089" stop-color="#FDFDFD" stop-opacity="0.4652"/>
<stop offset="1" stop-color="white"/>
</linearGradient>
</defs>
</svg>
