<svg width="300" height="278" viewBox="0 0 300 278" fill="none" xmlns="http://www.w3.org/2000/svg">
<path opacity="0.5" d="M20.9678 78.6191C20.9678 88.5962 24.7762 97.5446 31.055 104.025C37.2309 110.505 45.8771 114.516 55.3468 114.516H162.498C181.437 114.516 196.774 98.3675 196.774 78.5163C196.774 68.5392 192.966 59.5907 186.687 53.1108C182.879 49.0994 178.041 46.0137 172.791 44.2652C169.909 21.1225 151.073 3.22559 128.222 3.22559C111.238 3.22559 94.3577 10.2198 86.6379 24.7225C82.006 21.3283 78.6092 22.1511 72.5363 22.1511C59.464 22.1511 47.524 30.3796 44.3331 43.1338C30.3345 47.5566 20.9678 62.3679 20.9678 78.6191Z" fill="#E2E5E8"/>
<path opacity="0.2" d="M27.4194 153.907C27.4194 168.511 33.0448 181.61 42.319 191.095C51.4411 200.58 64.2121 206.452 78.1994 206.452H236.469C264.444 206.452 287.097 182.814 287.097 153.756C287.097 139.152 281.472 126.054 272.197 116.569C266.572 110.697 259.426 106.18 251.672 103.621C247.415 69.7453 219.593 43.5483 185.841 43.5483C160.755 43.5483 135.821 53.7862 124.418 75.0148C117.577 70.0465 112.56 71.2509 103.589 71.2509C84.2809 71.2509 66.6447 83.2955 61.9316 101.965C41.2547 108.439 27.4194 130.119 27.4194 153.907Z" fill="#E2E5E8"/>
<path d="M37.0967 152.573C37.0967 165.747 42.3078 177.526 50.8907 186.051C59.3204 194.575 71.122 200 83.9964 200H230.52C256.422 200 277.419 178.766 277.419 152.573C277.419 139.399 272.208 127.62 263.625 119.096C258.414 113.826 251.824 109.641 244.62 107.317C240.788 76.7839 214.886 53.2256 183.773 53.2256C160.63 53.2256 140.399 66.2446 129.976 85.3082C123.693 80.8135 116.029 78.1787 107.753 78.1787C89.8205 78.1787 74.8004 90.4229 70.3556 107.162C51.044 113.051 37.0967 131.185 37.0967 152.573Z" fill="white" stroke="#E2E5E8" stroke-width="2" stroke-miterlimit="10"/>
<path d="M83.0646 196.774C107.561 196.774 127.419 176.916 127.419 152.419C127.419 127.923 107.561 108.064 83.0646 108.064C58.5681 108.064 38.7097 127.923 38.7097 152.419C38.7097 176.916 58.5681 196.774 83.0646 196.774Z" fill="url(#paint0_linear_1236_151)"/>
<path d="M79.8952 246.774C79.8952 249.923 77.3425 252.476 74.1936 252.476C71.0446 252.476 68.4919 249.923 68.4919 246.774C68.4919 243.625 71.0446 241.073 74.1936 241.073C77.3425 241.073 79.8952 243.625 79.8952 246.774Z" fill="#B2D4FC" stroke="#007AFF" stroke-width="1.5"/>
<path d="M157.315 224.193C157.315 227.342 154.762 229.895 151.613 229.895C148.464 229.895 145.911 227.342 145.911 224.193C145.911 221.044 148.464 218.492 151.613 218.492C154.762 218.492 157.315 221.044 157.315 224.193Z" fill="#B2D4FC" stroke="#007AFF" stroke-width="1.5"/>
<path d="M229.895 212.903C229.895 216.052 227.342 218.605 224.194 218.605C221.045 218.605 218.492 216.052 218.492 212.903C218.492 209.754 221.045 207.202 224.194 207.202C227.342 207.202 229.895 209.754 229.895 212.903Z" fill="#B2D4FC" stroke="#007AFF" stroke-width="1.5"/>
<path d="M110.54 196.774C110.54 201.705 106.543 205.702 101.613 205.702C96.6825 205.702 92.6855 201.705 92.6855 196.774C92.6855 191.844 96.6825 187.847 101.613 187.847C106.543 187.847 110.54 191.844 110.54 196.774Z" fill="#B2D4FC" stroke="#007AFF" stroke-width="1.5"/>
<path d="M196.024 256.452C196.024 261.382 192.027 265.379 187.097 265.379C182.166 265.379 178.169 261.382 178.169 256.452C178.169 251.521 182.166 247.524 187.097 247.524C192.027 247.524 196.024 251.521 196.024 256.452Z" fill="#B2D4FC" stroke="#007AFF" stroke-width="1.5"/>
<defs>
<linearGradient id="paint0_linear_1236_151" x1="113.335" y1="119.966" x2="52.8284" y2="184.851" gradientUnits="userSpaceOnUse">
<stop offset="0.0052" stop-color="#E6E7E8" stop-opacity="0.1"/>
<stop offset="0.0449" stop-color="#EBEBEC" stop-opacity="0.1359"/>
<stop offset="0.1962" stop-color="#F6F7F7" stop-opacity="0.2728"/>
<stop offset="0.4089" stop-color="#FDFDFD" stop-opacity="0.4652"/>
<stop offset="1" stop-color="white"/>
</linearGradient>
</defs>
</svg>
