<svg width="300" height="278" viewBox="0 0 300 278" fill="none" xmlns="http://www.w3.org/2000/svg">
<rect x="77.5225" y="31.6172" width="141.78" height="42.907" rx="14.0293" fill="#F0F2F3"/>
<rect x="17.552" y="135.458" width="254.583" height="52.3441" rx="16.2267" fill="#F0F2F3"/>
<rect x="103.206" y="166.389" width="128.481" height="26.172" rx="5.5" fill="#F0F2F3"/>
<rect x="48.4827" y="66.4595" width="183.204" height="47.5855" rx="14.7515" fill="#F0F2F3"/>
<rect x="2.90161" y="100.642" width="182.821" height="42.907" rx="13.3012" fill="#F0F2F3"/>
<rect x="215.717" y="254.479" width="131.834" height="29.9881" rx="14.994" transform="rotate(-180 215.717 254.479)" fill="white" stroke="#E2E5E8" stroke-width="2"/>
<rect x="278.273" y="134.458" width="71.7576" height="28.9306" rx="14.4653" transform="rotate(-180 278.273 134.458)" fill="white" stroke="#E2E5E8" stroke-width="2"/>
<rect x="166.447" y="139.217" width="147.894" height="28.9306" rx="14.4653" transform="rotate(-180 166.447 139.217)" fill="white" stroke="#E2E5E8" stroke-width="2"/>
<rect x="185.481" y="113.044" width="116.964" height="28.9306" rx="14.4653" transform="rotate(-180 185.481 113.044)" fill="white" stroke="#E2E5E8" stroke-width="2"/>
<rect x="245.458" y="208.48" width="188.838" height="29.9881" rx="14.994" transform="rotate(-180 245.458 208.48)" fill="white" stroke="#E2E5E8" stroke-width="2"/>
<rect x="292.548" y="181.25" width="188.838" height="29.9881" rx="14.994" transform="rotate(-180 292.548 181.25)" fill="white" stroke="#E2E5E8" stroke-width="2"/>
</svg>
